<?xml version="1.0" encoding="utf-8"?>
<!-- Generator: Adobe Illustrator 24.1.2, SVG Export Plug-In . SVG Version: 6.00 Build 0)  -->
<svg version="1.1" id="Warstwa_1" xmlns="http://www.w3.org/2000/svg" xmlns:xlink="http://www.w3.org/1999/xlink" x="0px" y="0px"
	 viewBox="0 0 551 855" style="enable-background:new 0 0 551 855;" xml:space="preserve">
<style type="text/css">
	.st0{fill:#FFFFFF;stroke:#FFFFFF;stroke-miterlimit:10;}
	.st1{fill:#8ABCF8;stroke:#FFFFFF;stroke-miterlimit:10;}
</style>
<g id="Warstwa_2_1_">
	<g id="Warstwa_1-2">
		<path class="st0" d="M36.7,0.5h477.5c20,0,36.2,16.2,36.2,36.2v781.5c0,20-16.2,36.2-36.2,36.2H36.7c-20,0-36.2-16.2-36.2-36.2
			V36.7C0.5,16.7,16.7,0.5,36.7,0.5z"/>
		<path class="st1" d="M68.2,458.5h411.7c18,0,32.6,14.6,32.6,32.6v292.7c0,18-14.6,32.7-32.6,32.7H68.2c-18,0-32.7-14.6-32.7-32.7
			V491.1C35.5,473.1,50.1,458.5,68.2,458.5z"/>
	</g>
</g>
</svg>
